# xmcd
#
# Track frame offsets:
#	182
#	11145
#	28305
#	41627
#	56212
#	71570
#	86397
#	100975
#	124317
#	140555
#
# Disc length: 2056 seconds
#
# Revision: 1
# Processed by: cddbd v1.4PL0 Copyright (c) Steve Scherf et al.
# Submitted via: audiograbber 1.81.03
#
DISCID=9208060a
DTITLE=Various Artist - Billboard Top Country Hits 1986
DYEAR=1986
DGENRE=Country
TTITLE0=Hank Williams Jr. - Mind Your Own Business
TTITLE1=Ricky Skaggs - Cajun Moon
TTITLE2=Exile - It'll Be Me
TTITLE3=Hell And High Water - T. Graham Brown
TTITLE4=Lee Greenwood - Mornin' Ride
TTITLE5=Steve Wariner - Life's Highway
TTITLE6=Tanya Tucker - Just Another Love
TTITLE7=Dan Seals - You Still Move Me
TTITLE8=T. G. Sheppard - Strong Heart
TTITLE9=John Conlee - Got My Heart Set On You
EXTD=
EXTT0=
EXTT1=
EXTT2=
EXTT3=
EXTT4=
EXTT5=
EXTT6=
EXTT7=
EXTT8=
EXTT9=
PLAYORDER=
